<?xml version="1.0" encoding="utf-8"?>
<!-- Generator: Adobe Illustrator 24.0.2, SVG Export Plug-In . SVG Version: 6.00 Build 0)  -->
<svg version="1.1" id="f1dc107d-bdd8-43ea-ae8d-fe2fb406b6da"
	 xmlns="http://www.w3.org/2000/svg" xmlns:xlink="http://www.w3.org/1999/xlink" x="0px" y="0px" viewBox="0 0 360.2 100"
	 style="enable-background:new 0 0 360.2 100;" xml:space="preserve">
<path d="M6.3,29.2c9.2-9.7,25.9-9.3,33.3,3.1c0.6-0.7,1.1-1.5,1.6-2.1c5.4-6.7,12.6-9,21-7.4c8.8,1.6,13.5,7.6,15.6,15.7
	c0.5,2,0.8,4.2,0.8,6.3c0.1,9.5,0,19,0.1,28.5c0,1.8-0.4,3.3-2.5,3.7c-2.3,0.5-3.8-0.9-3.8-3.4c0-8.8,0-17.6,0-26.4
	c0-4.4-0.5-8.7-3.1-12.5c-3.3-4.7-8.6-7-14.3-5.9c-6,1.2-10.1,4.5-11.6,10.4c-0.6,2.4-0.6,5-0.7,7.5c-0.1,8.7,0,17.5,0,26.2
	c0,2.9-1.1,4.4-3.4,4c-1-0.2-2.1-1.1-2.7-2c-0.5-0.8-0.4-2-0.4-3c0-9.5,0-19-0.1-28.5c0-6.3-4.5-12.4-10.1-14.2
	c-9-2.8-18.4,3-19.6,12.2c-0.2,1.6-0.2,3.1-0.2,4.7c0,9,0,18,0,27c0,2.8-1.1,4-3.4,3.9c-1.5-0.1-2.5-0.8-2.7-2.3
	C0,73.9,0,73.2,0,72.4c0-15,0-29.9,0-44.9c0-0.5,0-1,0-1.4c0.2-2,1.3-3.2,3.1-3.2s3,1.1,3.1,3.1C6.3,26.9,6.3,27.8,6.3,29.2z"/>
<path d="M189,29.9c3.6-3.2,7.4-5.6,12-6.7c11.1-2.8,25,0.9,30,12.7c1.2,2.8,2,6,2.1,9.1c0.3,9.5,0.1,19.1,0.1,28.7
	c0,2.2-1.1,3.3-3,3.4c-2.1,0-3.2-1.1-3.2-3.4c0-8.7,0-17.3,0-26c0-3.8-0.7-7.5-2.7-10.8c-2.9-4.7-7.3-7.2-12.7-7.9
	c-6.8-0.9-13.2,0.2-18.3,5.1c-2.8,2.7-4.2,6-4.2,9.9c0,9.8,0,19.5,0,29.3c0,2.8-1.1,4-3.4,3.9c-1.5-0.1-2.5-0.8-2.7-2.3
	c-0.1-0.6-0.2-1.2-0.2-1.8c-0.1-15.2-0.2-30.4-0.2-45.6c0-7.7,0.1-15.4,0.2-23.1c0-1.2,0.4-2.7,1.2-3.4c0.6-0.6,2.5-0.7,3.2-0.3
	c0.9,0.6,1.7,2,1.7,3.1c0.2,6.4,0.1,12.8,0.1,19.2C189,25.1,189,27.5,189,29.9z"/>
<path d="M334.1,67.8c3.7-7.8,7.1-15.2,10.6-22.5c3.1-6.6,6.2-13.3,9.4-19.8c0.5-1,1.3-2.1,2.3-2.4c0.9-0.3,2.5,0.2,3.2,0.9
	c0.6,0.6,0.7,2.1,0.4,2.9c-1.1,2.9-2.5,5.6-3.9,8.4c-9.7,20.7-19.5,41.4-29.2,62.2c-0.9,1.9-1.9,2.8-4.1,2.5
	c-1.6-0.3-2.4-1.1-2.1-2.6c0.2-0.9,0.5-1.8,0.9-2.7c2.8-5.9,5.6-11.9,8.4-17.8c0.6-1.2,0.6-2.2,0-3.4c-7.1-15-14-30.1-21-45.2
	c-1.5-3.3-0.4-5.4,2.6-5.3c1.7,0,2.2,1.2,2.8,2.4c3.7,8.1,7.5,16.1,11.2,24.2C328.3,55.4,331.1,61.4,334.1,67.8z"/>
<path d="M120.4,48.6c0.3-8.2,3.4-16.2,11.5-21.9c10.4-7.4,27.3-4.9,35.1,5.2c1.3,1.7,1.3,3-0.1,4.2s-3,1.2-4.4-0.3
	c-2.8-3-6-5.4-10.1-6.6c-12.3-3.5-23.9,4.1-25.4,16.7c-1,8.1,0.7,15.2,6.9,20.9c7.1,6.4,19.3,6.8,26.9,1c0.4-0.3,0.9-0.7,1.3-1
	c1.5-0.8,3-0.9,4.1,0.6c1.1,1.4,0.9,2.8-0.5,4c-5.5,4.7-12,6.6-19.2,6.2c-8.1-0.4-14.7-3.5-19.9-9.7
	C122.2,62.7,120.4,56.6,120.4,48.6z"/>
<path d="M289,30.5c0,1.1,0,1.8,0,2.6c0,13,0,25.9,0,38.9c0,0.9,0,1.8-0.2,2.6c-0.3,1.8-1.6,2.5-3.3,2.4c-1.7-0.1-2.6-1.1-2.9-2.7
	c-0.1-0.7,0-1.5,0-2.2c0-13,0-25.9,0-38.9c0-0.7,0-1.5,0-2.6c-2.5,0-4.9,0-7.3,0c-1.4,0-2.6-0.4-3.1-1.9c-0.6-1.9,0.6-3.6,2.9-3.7
	s4.7,0,7.2,0c0.2-2.6,0.3-5,0.6-7.4c1-6.5,3.4-12.4,9.9-15.4c3-1.4,6.5-1.7,9.8-2.1c1.9-0.3,3.2,1.2,3.1,2.8c-0.1,1.8-1.3,2.7-3,2.7
	c-9.4,0-12.9,6.4-13.7,14.2c-0.2,1.7,0,3.4,0,5.2c4.2,0,8.2,0,12.2,0c1.5,0,2.8,0.2,3.3,1.9c0.6,2.1-0.5,3.6-2.9,3.7
	c-3.4,0.1-6.8,0-10.2,0C290.8,30.5,290,30.5,289,30.5z"/>
<path d="M97.4,49.9c0-7.7,0-15.4,0-23.1c0-2.6,1.1-3.9,3.2-3.8c2,0.1,3,1.3,3,3.8c0,15.5,0,31,0,46.5c0,2.6-1.1,3.8-3.3,3.7
	c-1.9-0.1-2.9-1.2-2.9-3.5c0-7.1,0-14.2,0-21.3C97.4,51.4,97.4,50.7,97.4,49.9z"/>
<path d="M252.1,49.8c0-7.8,0.1-15.7-0.1-23.5c0-2.5,2.7-4.1,4.6-2.8c0.9,0.6,1.6,2,1.6,3c0.1,15.7,0.1,31.4,0.1,47.1
	c0,2.3-1.1,3.5-3.1,3.5c-2.1,0-3.1-1.1-3.1-3.5C252.1,65.6,252.1,57.7,252.1,49.8z"/>
<path d="M255,11.9c-2.7,0-4.7-2-4.7-4.7s2.1-4.7,4.9-4.7s4.7,1.9,4.7,4.7S257.9,12,255,11.9z"/>
<path d="M105.2,7.1c0,2.8-1.9,4.8-4.7,4.9c-2.8,0-4.9-2-4.9-4.8c0-2.7,2-4.6,4.8-4.6C103.2,2.5,105.2,4.4,105.2,7.1z"/>
</svg>
