<?xml version="1.0" encoding="utf-8"?>
<!-- Generator: Adobe Illustrator 24.0.2, SVG Export Plug-In . SVG Version: 6.00 Build 0)  -->
<svg version="1.1" id="Capa_1" xmlns="http://www.w3.org/2000/svg" xmlns:xlink="http://www.w3.org/1999/xlink" x="0px" y="0px"
	 viewBox="0 0 222 222" style="enable-background:new 0 0 222 222;" xml:space="preserve">
<style type="text/css">
	.st0{fill:#F9C900;}
	.st1{fill:#11CAD3;}
	.st2{fill:#F700C9;}
</style>
<path class="st0" d="M110.9,109.3c-3.3-1.1-6.7-1.8-9.6-3.4c-26-14.9-52-30-77.9-45c-0.2-0.1-0.4-0.2-0.7-0.4
	c-5.2-3.2-5.3-7.4,0-10.5c10.2-6,20.4-11.9,30.6-17.8C69.2,23.1,85,13.9,100.8,4.8c6.9-4,13.7-4,20.6,0
	c25.7,14.9,51.5,29.8,77.2,44.7c0.2,0.1,0.4,0.2,0.7,0.4c5.5,3.3,5.6,7.6,0,10.8c-26.3,15.3-52.6,30.5-79,45.6
	C117.6,107.8,114.3,108.2,110.9,109.3z M131.3,55.9c-5.2-2.4-4.2-6-3-9.8c0.1-0.2,0.1-0.3,0.1-0.5c1.7-7,0-10.5-6.6-13.6
	c-5.6-2.7-11.6-3-17.5-1.9c-13.9,2.6-25.6,9.5-35.6,19.3c-0.3,0.3-0.5,0.8-0.9,1.4c4,2.2,7.9,4.4,11.1,6.2c4-3.9,7.5-7.8,11.4-11
	c3.6-2.9,7.9-4.5,12.7-4.2c5.1,0.4,7.3,3.5,6.1,8.3c-0.4,1.8-1,3.5-1.3,5.3c-0.7,4.6,0.6,7.2,4.9,9.2c0.7,0.3,1.9,0.4,2.5,0.1
	C120.4,62,125.5,59.1,131.3,55.9z M151.1,66.9c-4.9-2.7-9-5.1-13.2-7.3c-0.5-0.3-1.6,0.1-2.3,0.4c-4.6,2.5-9.1,5.1-13.7,7.7
	c-0.5,0.3-1,0.7-1.7,1.3c2.9,1.6,5.7,2.9,8,4.6c3.8,2.9,7.2,2.9,11.1,0.1C142.8,71.2,146.7,69.4,151.1,66.9z"/>
<path class="st1" d="M106.7,171.1c0,13.4,0,26.8,0,40.2c0,1.5-0.2,3.2-0.7,4.6c-0.9,2.5-3.6,3.7-6.1,2.5c-2.3-1.1-4.6-2.3-6.8-3.6
	c-23.6-13.6-47.2-27.2-70.8-40.9c-7.1-4.1-10.5-10.6-10.6-18.5c-0.2-26-0.1-52.1,0-78.1c0-1.3,0-2.7,0.5-3.9
	c1.9-4.5,4.8-5.4,9.2-2.9c8.6,4.9,17.1,9.9,25.7,14.8c16.3,9.4,32.6,18.9,49,28.3c7.2,4.1,10.8,10.3,10.7,18.6
	C106.6,145.2,106.7,158.1,106.7,171.1z M37.7,102.5c0,4.4-0.1,8.4,0.1,12.4c0,0.5,0.9,1.2,1.5,1.4c0.8,0.2,1.6,0,2.5,0.1
	c7.1,0.5,13.4,2.6,17.6,8.8c3.5,5.3,2.1,9.5-3.8,11.9c-2.2,0.9-4.4,2-6.4,3.3c-2.6,1.8-2.7,4.8-2.7,7.7c0,2.3,2.1,2.5,3.5,3.5
	c1.3,0.9,2.7,1.6,4.1,2.4c2.4,1.4,4.8,2.8,7.8,4.5c-0.8-5.7,2.9-7,6.6-8.3c0.6-0.2,1.2-0.5,1.8-0.8c4.1-1.9,5.9-5.2,6.1-9.5
	c0.2-4.7-0.8-9.1-3-13.2c-4.6-8.9-12.2-14.6-20.8-19C48.1,105.1,43.2,103.4,37.7,102.5z M61.8,181c0-5.1-0.1-9.4,0-13.7
	c0-1.7-0.5-2.7-2-3.6c-3.8-2.1-7.6-4.4-11.4-6.5c-0.5-0.3-1-0.3-1.9-0.6c0,5.1,0,9.8,0,14.6c0,0.4,0.4,1,0.7,1.2
	C51.8,175.3,56.5,177.9,61.8,181z"/>
<path class="st2" d="M115.9,170.9c0-13.2-0.1-26.5,0-39.7c0-7.5,3.3-13.3,9.8-17.1c24.9-14.4,49.9-28.8,74.9-43.3
	c0.8-0.5,1.6-0.9,2.4-1.2c3.6-1.3,6.3,0.2,7.1,4c0.2,1.1,0.3,2.3,0.3,3.5c0,26.5,0,52.9,0,79.4c0,7.7-3.4,13.6-10,17.5
	c-24.9,14.5-49.9,28.8-74.9,43.3c-0.8,0.5-1.6,0.9-2.5,1.2c-3,1.2-5.9-0.2-6.7-3.4c-0.3-1.4-0.4-2.8-0.4-4.2
	C115.9,197.5,115.9,184.2,115.9,170.9z M156.3,162.3c4.8-2.8,9.2-5.3,13.5-7.9c0.6-0.4,1.2-1.3,1.3-1.9c0.1-3.8,1.8-6.9,3.7-9.9
	c2.6-4.3,5.4-8.6,7.8-13c2.7-4.9,3.8-10.3,3-15.9c-0.7-5.1-4.4-7.7-9.4-6.6c-1.4,0.3-2.8,0.6-4.1,1.1c-7,2.6-13,6.9-18.7,11.7
	c-6.2,5.3-6.2,5.2-6.2,13.3c0,1.7,0,3.5,0,5.2c0.2,0,0.5,0.1,0.7,0.1c1.1-1.2,2.1-2.5,3.2-3.7c3.9-4.2,7.8-8.5,13.1-10.9
	c1.4-0.6,3.9-1,4.8-0.3c1,0.9,1.6,3.4,1.1,4.8c-1.2,3.6-3,7-4.8,10.3c-2.5,4.6-5.4,9-7.8,13.6C156.1,155.4,155.6,158.6,156.3,162.3z
	 M156,185.2c5.2-3,9.7-5.6,14.2-8.3c0.6-0.4,0.9-1.5,0.9-2.3c0.1-3.4,0.1-6.8,0-10.2c0-1.1-0.1-2.2-0.2-3.8c-5,2.9-9.5,5.5-14,8.1
	c-0.4,0.3-0.9,0.9-0.9,1.4C156,174.9,156,179.6,156,185.2z"/>
</svg>
