<?xml version="1.0" encoding="utf-8"?>
<!-- Generator: Adobe Illustrator 24.0.2, SVG Export Plug-In . SVG Version: 6.00 Build 0)  -->
<svg version="1.1" id="f1dc107d-bdd8-43ea-ae8d-fe2fb406b6da"
	 xmlns="http://www.w3.org/2000/svg" xmlns:xlink="http://www.w3.org/1999/xlink" x="0px" y="0px" viewBox="0 0 135.3 135.3"
	 style="enable-background:new 0 0 135.3 135.3;" xml:space="preserve">
<path d="M109.4,108.6c0-2.7,0-5.4,0-7.9c0-8.7,0.3-17.3,0-26c-0.1-3.6-1.2-7.2-2.2-10.7c-2.1-7.5-5.5-14.3-10.3-20.4
	c-0.2-0.2-0.4-0.4-0.6-0.7c-3.6,4.7-7.3,9.4-10.9,14c2,1.7,4,3.4,6,5c-0.1,0.1-0.1,0.1-0.2,0.2c-1.9-1.2-3.7-2.5-5.7-3.5
	C80.6,56,75.4,55,70,55c-5.9-0.1-11.9,0.6-17.4,2.9c-3,1.2-5.9,2.8-9.2,4.5c2.4-1.7,4.5-3.4,6.7-5c-3.6-4.7-7.4-9.6-11.4-14.6
	c-1.6,2.5-3.3,4.7-4.7,7.1c-4.4,7.3-6.8,15.2-8.3,23.6c-0.1,0.5-0.1,1.1-0.1,1.6c0.1,10.6,0.1,21.1,0.2,31.6c0,0.5,0,1.2,0,1.9
	c-5.2-0.2-10.4,0.7-15.3-1.6c-6.2-3.2-10.2-9.7-9.8-16.7c0.5-7.8,5.4-14,12.9-16.1c0.4-0.1,0.7-0.2,1.2-0.4c0-0.5,0-1.2,0-1.7
	c0-5.9,0-11.9,0-17.8c0-8.8,2.5-16.8,8.2-23.6c6.2-7.5,14.1-12,23.9-12.6c8.8-0.5,17.6-0.2,26.4-0.3c4,0,8-0.1,12.1,0
	c13,0.2,23.1,5.9,30.1,16.8c3.8,5.9,5.4,12.5,5.3,19.5c-0.1,6.4,0,12.9,0.1,19.3c0,0.1,0.1,0.3,0.3,0.1c2.3,1.2,4.7,2.2,6.9,3.7
	c7.6,5.3,9.1,17,3.5,24.3c-3.6,4.7-8.4,7.1-14.3,7.1C114.4,108.6,111.9,108.6,109.4,108.6z M23.6,73.6c2.2-12.7,6.6-24.2,15.3-33.8
	c1.1,1.5,2.2,2.7,3.2,4.1c3.1,4,6.2,7.9,9.2,11.9c0.5,0.7,1,0.7,1.7,0.5c4.1-1.7,8.5-2.7,12.9-3c6-0.4,11.9,0.4,17.3,3
	c4.3-5.5,8.6-10.9,12.9-16.4c3.9,4.3,6.9,8.9,9.3,14c2.8,6,4.7,12.4,5.8,19c0.1,0.4,0.5,0.9,0.7,0.9c1.7,0.1,3.4,0,5.2,0
	c0-0.7,0-1.3,0-1.8c0-4.1,0-8.1,0.1-12.2c0.1-6.6,0-13-2.7-19.1c-3-6.7-7.7-11.9-14.1-15.4c-4.9-2.7-10.3-3.9-16-3.9
	c-11.2,0.1-22.3,0.1-33.6,0c-7.7-0.1-14.5,2-20.5,6.7c-8,6.3-12.3,14.6-12.5,24.8c-0.2,6.2-0.1,12.3-0.1,18.5c0,0.7,0,1.5,0,2.3
	C19.9,73.6,21.7,73.6,23.6,73.6z"/>
<path d="M67.8,91.2C59.7,96.6,53,95,49.9,86.6c2.6,2.6,4.8,5,8.4,5.3c3.7,0.3,6.1-2,8.7-4.3c-0.6-0.9-1.1-1.6-1.4-2.4
	c-0.1-0.7,0-2.4,0.1-2.4c1.4-0.1,2.7-0.1,4.1,0c0.1,0,0.4,1.7,0.1,2.4c-1.3,2.7-1.3,2.7,0.9,4.4c4.7,3.6,9.1,3.1,13.5-1.6
	c0.4-0.4,0.7-0.7,1.1-1.3C83.9,94.6,75.7,96.6,67.8,91.2z"/>
<path d="M45.8,67.9c3.5,0,6.6,2.9,6.6,6.4c0,3.5-2.6,6.4-6.2,6.4c-3.7,0-6.6-2.6-6.6-6.4C39.6,71,42.5,67.9,45.8,67.9z"/>
<path d="M89.2,67.9c3.5,0,6.6,2.9,6.6,6.4c0,3.5-2.6,6.4-6.2,6.4c-3.7,0-6.6-2.6-6.6-6.4C83.1,71,85.9,67.9,89.2,67.9z"/>
<g>
	<path d="M42.6,90.7c-1.3,1.1-17.1,0.9-18.2,0C30.5,90.7,36.4,90.7,42.6,90.7z"/>
	<path d="M111.1,90c-1.7,1.1-17.4,0.9-18.4,0C98.8,90,104.7,90,111.1,90z"/>
	<path d="M42.5,95.5c-3.7,0.7-7.4,1.4-11.1,2c0-0.2-0.1-0.5-0.1-0.8c3.7-0.7,7.4-1.4,11.1-2.1C42.3,94.9,42.5,95.1,42.5,95.5z"/>
	<path d="M92.7,93.9c4,0.8,7.7,1.5,11.3,2.2C102.2,97,93.5,95.2,92.7,93.9z"/>
	<path d="M34,85.1c2.7,0.7,5.6,1.4,8.3,2.1c-0.1,0.2-0.1,0.6-0.2,0.8c-2.8-0.5-5.6-1.4-8.3-2.1C33.8,85.6,33.8,85.3,34,85.1z"/>
	<path d="M101.9,85.2C98.8,86,96,86.7,93,87.5C93.7,86.1,100.4,84.3,101.9,85.2z"/>
</g>
</svg>
