<?xml version="1.0" encoding="utf-8"?>
<!-- Generator: Adobe Illustrator 24.0.2, SVG Export Plug-In . SVG Version: 6.00 Build 0)  -->
<svg version="1.1" id="f1dc107d-bdd8-43ea-ae8d-fe2fb406b6da"
	 xmlns="http://www.w3.org/2000/svg" xmlns:xlink="http://www.w3.org/1999/xlink" x="0px" y="0px" viewBox="0 0 147.1 100"
	 style="enable-background:new 0 0 147.1 100;" xml:space="preserve">
<g>
	<path d="M119.3,100c0-3,0-5.9,0-8.7c0-9.5,0.3-19,0-28.5c-0.1-3.9-1.3-7.9-2.4-11.7c-2.3-8.2-6-15.7-11.3-22.4
		c-0.2-0.2-0.4-0.4-0.7-0.8c-4,5.2-8,10.3-12,15.4c2.2,1.9,4.4,3.7,6.6,5.5c-0.1,0.1-0.1,0.1-0.2,0.2c-2.1-1.3-4.1-2.7-6.3-3.8
		c-5.3-2.9-11-3.9-16.9-4c-6.5-0.1-13,0.7-19.1,3.2c-3.3,1.3-6.5,3.1-10.1,4.9c2.6-1.9,4.9-3.7,7.3-5.5c-4-5.2-8.1-10.5-12.5-16
		c-1.8,2.7-3.6,5.1-5.2,7.8c-4.8,8-7.5,16.7-9.1,25.9c-0.1,0.6-0.1,1.2-0.1,1.8c0.1,11.6,0.1,23.1,0.2,34.7c0,0.6,0,1.3,0,2.1
		c-5.7-0.2-11.4,0.8-16.8-1.8C3.9,94.8-0.5,87.7-0.1,80C0.4,71.5,5.8,64.6,14,62.3c0.4-0.1,0.8-0.2,1.3-0.4c0-0.6,0-1.3,0-1.9
		c0-6.5,0-13,0-19.5c0-9.7,2.7-18.4,9-25.9C31.1,6.4,39.8,1.4,50.5,0.8c9.6-0.6,19.3-0.2,29-0.3c4.4,0,8.8-0.1,13.3,0
		c14.3,0.2,25.3,6.5,33,18.4c4.2,6.5,5.9,13.7,5.8,21.4c-0.1,7,0,14.1,0.1,21.2c0,0.1,0.1,0.3,0.3,0.1c2.5,1.3,5.2,2.4,7.6,4.1
		c8.3,5.8,10,18.6,3.8,26.6c-4,5.1-9.2,7.8-15.7,7.8C124.8,100,122.1,100,119.3,100z M25.2,61.6c2.4-13.9,7.2-26.5,16.8-37.1
		c1.2,1.6,2.4,3,3.5,4.5c3.4,4.4,6.8,8.7,10.1,13.1c0.6,0.8,1.1,0.8,1.9,0.5c4.5-1.9,9.3-3,14.2-3.3c6.6-0.4,13,0.4,19,3.3
		c4.7-6,9.4-12,14.1-18c4.3,4.7,7.6,9.8,10.2,15.4c3.1,6.6,5.1,13.6,6.4,20.8c0.1,0.4,0.5,1,0.8,1c1.9,0.1,3.7,0,5.7,0
		c0-0.8,0-1.4,0-2c0-4.5,0-8.9,0.1-13.4c0.1-7.2,0-14.3-3-21c-3.3-7.3-8.4-13-15.5-16.9c-5.4-3-11.3-4.3-17.5-4.3
		c-12.3,0.1-24.5,0.1-36.8,0c-8.4-0.1-15.9,2.2-22.5,7.3c-8.8,6.9-13.5,16-13.7,27.2c-0.2,6.8-0.1,13.5-0.1,20.3c0,0.8,0,1.6,0,2.5
		C21.1,61.6,23.1,61.6,25.2,61.6z"/>
	<path d="M73.4,72.7c-5.7,3.8-10.4,2.7-12.6-3.2c1.8,1.8,3.4,3.5,5.9,3.7c2.6,0.2,4.3-1.4,6.1-3c-0.4-0.6-0.8-1.1-1-1.7
		c-0.1-0.5,0-1.7,0.1-1.7c1-0.1,1.9-0.1,2.9,0c0.1,0,0.3,1.2,0.1,1.7c-0.9,1.9-0.9,1.9,0.6,3.1c3.3,2.5,6.4,2.2,9.5-1.1
		c0.3-0.3,0.5-0.5,0.8-0.9C84.7,75.1,79,76.5,73.4,72.7z"/>
	<path d="M93.4,68.2c-1.6,0-2.9-1.4-2.9-3c0.1-1.6,1.4-2.8,3-2.8s2.9,1.4,2.9,3C96.3,67.1,95.1,68.2,93.4,68.2z"/>
	<path d="M52.6,62.4c1.6,0,3,1.3,3,2.9c0,1.6-1.2,2.9-2.8,2.9c-1.7,0-3-1.2-3-2.9C49.8,63.8,51.1,62.4,52.6,62.4z"/>
	<path d="M46.8,74.7c-1.1,0.9-14.5,0.8-15.4,0C36.6,74.7,41.6,74.7,46.8,74.7z"/>
	<path d="M115.6,74.7c-1.4,0.9-14.7,0.8-15.6,0C105.2,74.7,110.2,74.7,115.6,74.7z"/>
	<path d="M46.7,78.8c-3.1,0.6-6.3,1.2-9.4,1.7c0-0.2-0.1-0.4-0.1-0.7c3.1-0.6,6.3-1.2,9.4-1.8C46.6,78.3,46.7,78.5,46.7,78.8z"/>
	<path d="M100,78c3.4,0.7,6.5,1.3,9.6,1.9C108.1,80.6,100.7,79.1,100,78z"/>
	<path d="M39.5,70c2.3,0.6,4.7,1.2,7,1.8c-0.1,0.2-0.1,0.5-0.2,0.7c-2.4-0.4-4.7-1.2-7-1.8C39.4,70.4,39.4,70.2,39.5,70z"/>
	<path d="M107.8,70.6c-2.6,0.7-5,1.3-7.5,2C100.9,71.4,106.5,69.9,107.8,70.6z"/>
</g>
</svg>
